<?xml version="1.0" encoding="UTF-8" standalone="yes"?>
<!DOCTYPE svg PUBLIC "-//W3C//DTD SVG 1.1//EN" "http://www.w3.org/Graphics/SVG/1.1/DTD/svg11.dtd">

<svg width="500" height="500" viewBox="0 0 500 500" xmlns="http://www.w3.org/2000/svg" xmlns:xlink="http://www.w3.org/1999/xlink" version="1.1" baseProfile="full">
    <g transform="scale(1,-1) translate(0,-500)">
        <path d="M 24.374988 46.125004 C 13.124988 46.125004 1.874987 36.750004 1.874987 23.625003 C 1.874987 10.500003 11.249987 1.125002 24.374988 1.125002 C 37.499988 1.125002 46.874989 10.500002 46.874989 23.625003 C 44.999995 36.750004 35.624995 46.125004 24.374988 46.125004 Z" transform="scale(1.000000,1.000000) translate(325.000000,322.000000)" fill="#3c3c3c" opacity="1.000000"></path>
        <path d="M 93.000002 185.000004 C 42.375002 185.000004 1.125001 143.750003 1.125001 93.125002 C 1.125001 42.500001 42.375002 1.250000 93.000002 1.250000 C 143.625003 1.250000 184.875004 42.500001 184.875004 93.125002 C 186.750002 143.750007 145.499988 185.000004 93.000002 185.000004 Z M 93.000002 33.125014 C 61.125002 33.125014 33.000002 59.375014 33.000002 93.125015 C 33.000002 125.000016 59.250001 153.125016 93.000002 153.125016 C 124.875003 153.125016 153.000003 126.875017 153.000003 93.125015 C 153.000017 59.375007 126.749988 33.125014 93.000002 33.125014 Z" transform="scale(1.000000,1.000000) translate(157.000000,155.000000)" fill="#3c3c3c" opacity="1.000000"></path>
        <path d="M 264.000002 376.500000 L 114.000002 376.500000 C 52.125003 376.500000 1.500002 325.874999 1.500002 264.000000 L 1.500002 114.000000 C 1.500002 52.125001 52.125003 1.500000 114.000002 1.500000 L 264.000002 1.500000 C 325.875002 1.500000 376.500002 52.125001 376.500002 114.000000 L 376.500002 264.000000 C 376.500002 325.875004 325.874988 376.500000 264.000002 376.500000 Z M 340.875010 114.000000 C 340.875010 70.875001 305.250010 37.125002 264.000011 37.125002 L 114.000011 37.125002 C 70.875012 37.125002 37.125013 72.750001 37.125013 114.000000 L 37.125013 264.000000 C 37.125013 307.124999 72.750013 340.874998 114.000011 340.874998 L 264.000011 340.874998 C 307.125011 340.874998 340.875010 305.249999 340.875010 264.000000 L 340.875010 114.000000 Z" transform="scale(1.000000,1.000000) translate(61.000000,61.000000)" fill="#3c3c3c" opacity="1.000000"></path>
    </g>
</svg>