<?xml version="1.0" encoding="UTF-8"?><svg id="Layer_1" xmlns="http://www.w3.org/2000/svg" viewBox="0 0 112.09 119.07"><defs><style>.cls-1{fill:#06f;}.cls-2{fill:#f5f7f9;}.cls-3{fill:#3c3c3b;}</style></defs><g><path class="cls-3" d="m8.92,79.77c.61,4.31,4.19,6.31,8.25,6.31,4.49,0,7.58-3.52,9.89-3.52,1.88,0,3.58,1.88,3.58,3.76,0,3.76-7.76,7.4-14.25,7.4-9.83,0-16.38-7.16-16.38-16.8,0-8.86,6.43-16.92,15.65-16.92s15.71,8.61,15.71,15.89c0,2.61-1.15,3.88-3.82,3.88H8.92Zm13.71-5.82c-.49-3.82-2.91-6.67-6.98-6.67s-6.49,2.97-6.91,6.67h13.89Z"/><path class="cls-3" d="m36.27,51.14c0-2.91,1.82-4.85,4.37-4.85s4.37,1.94,4.37,4.85v37.36c0,2.91-1.82,4.85-4.37,4.85s-4.37-1.94-4.37-4.85v-37.36Z"/><path class="cls-3" d="m51.68,51.14c0-2.91,1.82-4.85,4.37-4.85s4.37,1.94,4.37,4.85v37.36c0,2.91-1.82,4.85-4.37,4.85s-4.37-1.94-4.37-4.85v-37.36Z"/><path class="cls-3" d="m67.09,65.21c0-2.91,1.82-4.85,4.37-4.85s4.37,1.94,4.37,4.85v23.29c0,2.91-1.82,4.85-4.37,4.85s-4.37-1.94-4.37-4.85v-23.29Z"/><path class="cls-3" d="m89.65,79.77c.61,4.31,4.19,6.31,8.25,6.31,4.49,0,7.58-3.52,9.89-3.52,1.88,0,3.58,1.88,3.58,3.76,0,3.76-7.76,7.4-14.25,7.4-9.83,0-16.38-7.16-16.38-16.8,0-8.86,6.43-16.92,15.65-16.92s15.71,8.61,15.71,15.89c0,2.61-1.15,3.88-3.82,3.88h-18.62Zm13.71-5.82c-.49-3.82-2.91-6.67-6.98-6.67s-6.49,2.97-6.91,6.67h13.89Z"/></g><path class="cls-3" d="m63.18,106.81c-1.1,0-2.08-.86-3.49-.86-2.51,0-3.71,2.24-3.71,4.51s1.32,4.44,3.71,4.44c1.1,0,2.76-.92,3.28-.92,1.04,0,1.9.89,1.9,1.93,0,2.27-3.8,3.03-5.39,3.03-4.75,0-7.91-3.89-7.91-8.49s3.25-8.55,7.91-8.55c1.75,0,5.39.64,5.39,2.79,0,.92-.64,2.11-1.69,2.11Z"/><path class="cls-3" d="m85.89,104.29c0-1.47,1.16-2.21,2.27-2.21,1.16,0,2.15.43,2.15,1.84h.06c.83-1.23,1.72-1.84,3.1-1.84,1.07,0,2.15.77,2.15,2.36,0,1.44-1.32,1.53-2.64,2.15-1.32.61-2.67,1.2-2.67,2.94v6.77c0,1.47-.92,2.45-2.21,2.45s-2.21-.98-2.21-2.45v-12.01Z"/><path class="cls-3" d="m100.14,111.89c.31,2.18,2.11,3.19,4.17,3.19,2.27,0,3.83-1.78,5-1.78.95,0,1.81.95,1.81,1.9,0,1.9-3.92,3.74-7.2,3.74-4.96,0-8.27-3.62-8.27-8.49,0-4.47,3.25-8.55,7.91-8.55s7.94,4.35,7.94,8.03c0,1.32-.58,1.96-1.93,1.96h-9.41Zm6.93-2.94c-.25-1.93-1.47-3.37-3.52-3.37s-3.28,1.5-3.49,3.37h7.02Z"/><path class="cls-3" d="m67.01,113.99v-.06c0-3.62,2.76-5.3,6.69-5.3,1.67,0,2.88.28,4.06.68v-.28c0-1.95-1.21-3.04-3.56-3.04-1.3,0-2.35.19-3.25.46-.28.09-.46.12-.68.12-1.08,0-1.95-.84-1.95-1.92,0-.84.53-1.55,1.27-1.83,1.49-.56,3.1-.87,5.3-.87,2.57,0,4.43.68,5.61,1.86,1.24,1.24,1.8,3.07,1.8,5.3v7.56c0,1.27-1.02,2.26-2.29,2.26-1.36,0-2.26-.96-2.26-1.95v-.03c-1.15,1.27-2.73,2.11-5.02,2.11-3.13,0-5.7-1.8-5.7-5.08Zm10.81-1.08v-.84c-.81-.37-1.86-.62-3.01-.62-2.01,0-3.25.81-3.25,2.29v.06c0,1.27,1.05,2.01,2.57,2.01,2.2,0,3.69-1.21,3.69-2.91Z"/><g><g><path class="cls-2" d="m86.57,51.04c-14.07,0-25.52-11.45-25.52-25.52S72.5,0,86.57,0s25.52,11.45,25.52,25.52-11.45,25.52-25.52,25.52Zm0-45.74c-11.15,0-20.22,9.07-20.22,20.22s9.07,20.22,20.22,20.22,20.22-9.07,20.22-20.22-9.07-20.22-20.22-20.22Z"/><path class="cls-1" d="m86.57,51.04c-12.07,0-22.59-8.57-25-20.38-.29-1.43.63-2.84,2.07-3.13,1.44-.3,2.84.63,3.13,2.07,1.91,9.35,10.24,16.14,19.81,16.14s17.94-6.82,19.82-16.22c.29-1.44,1.68-2.37,3.12-2.08,1.44.29,2.37,1.69,2.08,3.12-2.38,11.87-12.9,20.48-25.02,20.48Z"/></g><g><rect class="cls-1" x="77.03" y="18.86" width="7.06" height="9.52" rx="3.08" ry="3.08"/><rect class="cls-1" x="89.05" y="18.86" width="7.06" height="9.52" rx="3.11" ry="3.11"/></g></g></svg>